<svg xmlns="http://www.w3.org/2000/svg" style="display:none">
  <symbol id="fvps-icon-cpu" viewBox="0 0 24 24" fill="none" stroke="currentColor" stroke-width="1.6">
    <rect x="7" y="7" width="10" height="10" rx="2"/>
    <path d="M9 1v3M15 1v3M9 20v3M15 20v3M1 9h3M1 15h3M20 9h3M20 15h3"/>
  </symbol>
  <symbol id="fvps-icon-ram" viewBox="0 0 24 24" fill="none" stroke="currentColor" stroke-width="1.6">
    <rect x="3" y="6" width="18" height="12" rx="2"/>
    <path d="M7 10v4M11 10v4M15 10v4M5 22v-2M19 22v-2M9 22v-2M13 22v-2M17 22v-2"/>
  </symbol>
  <symbol id="fvps-icon-ssd" viewBox="0 0 24 24" fill="none" stroke="currentColor" stroke-width="1.6">
    <rect x="3" y="4" width="18" height="16" rx="2"/>
    <path d="M7 4v16M17 4v16M10 8h4M10 12h4M10 16h4"/>
  </symbol>
  <symbol id="fvps-icon-bandwidth" viewBox="0 0 24 24" fill="none" stroke="currentColor" stroke-width="1.6">
    <path d="M4 6h16M4 12h10M4 18h6"/>
    <path d="M18 9l3-3-3-3M14 15l3 3-3 3"/>
  </symbol>
  <symbol id="fvps-icon-port" viewBox="0 0 24 24" fill="none" stroke="currentColor" stroke-width="1.6">
    <rect x="4" y="5" width="16" height="8" rx="2"/>
    <path d="M8 5v-2M16 5v-2M12 13v6M9 19h6"/>
  </symbol>
  <symbol id="fvps-icon-location" viewBox="0 0 24 24" fill="none" stroke="currentColor" stroke-width="1.6">
    <path d="M12 2a7 7 0 0 0-7 7c0 5.25 7 13 7 13s7-7.75 7-13a7 7 0 0 0-7-7z"/>
    <circle cx="12" cy="9" r="2.5"/>
  </symbol>
  <symbol id="fvps-icon-generic" viewBox="0 0 24 24" fill="none" stroke="currentColor" stroke-width="1.6">
    <circle cx="12" cy="12" r="9"/>
    <path d="M12 7v5l3 3"/>
  </symbol>
</svg>
