<svg xmlns="http://www.w3.org/2000/svg" xmlns:xlink="http://www.w3.org/1999/xlink" style="display:none">
  <symbol id="ram" viewBox="0 0 24 24" fill="none" stroke="currentColor" stroke-width="1.8" stroke-linecap="round" stroke-linejoin="round">
    <rect x="3.5" y="7" width="17" height="10" rx="2"></rect>
    <rect x="7" y="9.5" width="10" height="5" rx="1"></rect>
    <path d="M7 3.5v3M17 3.5v3M7 20.5v-3M17 20.5v-3M3.5 10h3M3.5 14h3M20.5 10h-3M20.5 14h-3"></path>
  </symbol>
  <symbol id="cpu" viewBox="0 0 24 24" fill="none" stroke="currentColor" stroke-width="1.8" stroke-linecap="round" stroke-linejoin="round">
    <rect x="6" y="6" width="12" height="12" rx="3"></rect>
    <rect x="9.5" y="9.5" width="5" height="5" rx="1.5"></rect>
    <path d="M9 2v3M15 2v3M9 19v3M15 19v3M2 9h3M2 15h3M19 9h3M19 15h3"></path>
  </symbol>
  <symbol id="disk" viewBox="0 0 24 24" fill="none" stroke="currentColor" stroke-width="1.8" stroke-linecap="round" stroke-linejoin="round">
    <rect x="3.5" y="4.5" width="17" height="15" rx="2"></rect>
    <path d="M7 9h10"></path>
    <path d="M7 13h5"></path>
    <circle cx="17" cy="16" r="2.2"></circle>
  </symbol>
  <symbol id="bandwidth" viewBox="0 0 24 24" fill="none" stroke="currentColor" stroke-width="1.8" stroke-linecap="round" stroke-linejoin="round">
    <path d="M4 7h10M4 12h8M4 17h6"></path>
    <path d="M15 5l4 4-4 4M13 13l4 4-4 4"></path>
  </symbol>
  <symbol id="network" viewBox="0 0 24 24" fill="none" stroke="currentColor" stroke-width="1.8" stroke-linecap="round" stroke-linejoin="round">
    <circle cx="12" cy="7" r="3"></circle>
    <circle cx="6" cy="17" r="3"></circle>
    <circle cx="18" cy="17" r="3"></circle>
    <path d="M10.6 9.2l-3.2 5.6M13.4 9.2l3.2 5.6"></path>
  </symbol>
  <symbol id="ip" viewBox="0 0 24 24" fill="none" stroke="currentColor" stroke-width="1.8" stroke-linecap="round" stroke-linejoin="round">
    <rect x="3.5" y="6.5" width="17" height="11" rx="2"></rect>
    <path d="M7.5 10.5h2v4h-2z"></path>
    <path d="M12 10.5h3"></path>
    <path d="M16.5 10.5v4"></path>
  </symbol>
  <symbol id="generic" viewBox="0 0 24 24" fill="none" stroke="currentColor" stroke-width="1.8" stroke-linecap="round" stroke-linejoin="round">
    <circle cx="12" cy="12" r="6.5"></circle>
    <path d="M12 8v4l2.5 2.5"></path>
  </symbol>
</svg>
