<svg width="400" height="260" viewBox="0 0 400 260" xmlns="http://www.w3.org/2000/svg">
  <rect width="400" height="260" rx="24" fill="#0f172a"/>
  <rect x="14" y="18" width="372" height="224" rx="20" fill="#111827"/>
  <rect x="32" y="40" width="336" height="44" rx="12" fill="#1e293b"/>
  <rect x="48" y="54" width="120" height="16" rx="8" fill="#38bdf8"/>
  <g transform="translate(48 100)">
    <rect width="92" height="132" rx="16" fill="#1f2937" stroke="#38bdf8" stroke-width="2"/>
    <rect x="10" y="16" width="72" height="32" rx="12" fill="#0f172a" stroke="#38bdf8" stroke-width="2"/>
    <rect x="24" y="58" width="44" height="8" rx="4" fill="#f8fafc"/>
    <rect x="16" y="78" width="60" height="6" rx="3" fill="#475569"/>
    <rect x="16" y="96" width="60" height="6" rx="3" fill="#475569"/>
    <rect x="20" y="114" width="52" height="12" rx="6" fill="#38bdf8"/>
  </g>
  <g transform="translate(154 100)">
    <rect width="92" height="132" rx="16" fill="#1f2937" stroke="#94a3b8" stroke-width="2"/>
    <rect x="10" y="16" width="72" height="32" rx="12" fill="#0f172a" stroke="#94a3b8" stroke-width="2"/>
    <rect x="24" y="58" width="44" height="8" rx="4" fill="#f8fafc"/>
    <rect x="16" y="78" width="60" height="6" rx="3" fill="#475569"/>
    <rect x="16" y="96" width="60" height="6" rx="3" fill="#475569"/>
    <rect x="20" y="114" width="52" height="12" rx="6" fill="#475569"/>
  </g>
  <g transform="translate(260 100)">
    <rect width="92" height="132" rx="16" fill="#1f2937" stroke="#475569" stroke-width="2"/>
    <rect x="10" y="16" width="72" height="32" rx="12" fill="#0f172a" stroke="#475569" stroke-width="2"/>
    <rect x="24" y="58" width="44" height="8" rx="4" fill="#f8fafc"/>
    <rect x="16" y="78" width="60" height="6" rx="3" fill="#475569"/>
    <rect x="16" y="96" width="60" height="6" rx="3" fill="#475569"/>
    <rect x="20" y="114" width="52" height="12" rx="6" fill="#475569"/>
  </g>
</svg>
